<?xml version="1.0" encoding="UTF-8" standalone="no"?>
<svg
   xmlns:dc="http://purl.org/dc/elements/1.1/"
   xmlns:cc="http://creativecommons.org/ns#"
   xmlns:rdf="http://www.w3.org/1999/02/22-rdf-syntax-ns#"
   xmlns:svg="http://www.w3.org/2000/svg"
   xmlns="http://www.w3.org/2000/svg"
   xmlns:xlink="http://www.w3.org/1999/xlink"
   xmlns:sodipodi="http://sodipodi.sourceforge.net/DTD/sodipodi-0.dtd"
   xmlns:inkscape="http://www.inkscape.org/namespaces/inkscape"
   viewBox="0 0 557 700"
   id="svg99"
   height="700"
   width="557"
   version="1.1"
   inkscape:version="0.91 r13725"
   sodipodi:docname="Logo Moulins-Yzeure Foot 03.svg">
  <sodipodi:namedview
     pagecolor="#ffffff"
     bordercolor="#666666"
     borderopacity="1"
     objecttolerance="10"
     gridtolerance="10"
     guidetolerance="10"
     inkscape:pageopacity="0"
     inkscape:pageshadow="2"
     inkscape:window-width="1440"
     inkscape:window-height="788"
     id="namedview58"
     showgrid="false"
     inkscape:zoom="0.34328462"
     inkscape:cx="257.47637"
     inkscape:cy="348.92269"
     inkscape:window-x="0"
     inkscape:window-y="1"
     inkscape:window-maximized="1"
     inkscape:current-layer="svg99" />
  <metadata
     id="metadata105">
    <rdf:RDF>
      <cc:Work
         rdf:about="">
        <dc:format>image/svg+xml</dc:format>
        <dc:type
           rdf:resource="http://purl.org/dc/dcmitype/StillImage" />
        <dc:title></dc:title>
      </cc:Work>
    </rdf:RDF>
  </metadata>
  <defs
     id="defs103">
    <linearGradient
       inkscape:collect="always"
       id="linearGradient4492">
      <stop
         style="stop-color:#0430f0;stop-opacity:1"
         offset="0"
         id="stop4494" />
      <stop
         style="stop-color:#04f3f8;stop-opacity:1"
         offset="1"
         id="stop4496" />
    </linearGradient>
    <linearGradient
       inkscape:collect="always"
       id="linearGradient4472">
      <stop
         style="stop-color:#44ff19;stop-opacity:1"
         offset="0"
         id="stop4474" />
      <stop
         id="stop4480"
         offset="0.68580258"
         style="stop-color:#40e41d;stop-opacity:1" />
      <stop
         style="stop-color:#029609;stop-opacity:1"
         offset="0.8377049"
         id="stop4482" />
      <stop
         style="stop-color:#059905;stop-opacity:1"
         offset="1"
         id="stop4476" />
    </linearGradient>
    <linearGradient
       inkscape:collect="always"
       id="linearGradient4414">
      <stop
         style="stop-color:#01e6fe;stop-opacity:1"
         offset="0"
         id="stop4416" />
      <stop
         style="stop-color:#0430ec;stop-opacity:1"
         offset="1"
         id="stop4418" />
    </linearGradient>
    <defs
       id="defs14">
      <linearGradient
         id="grad1">
        <stop
           offset="0.0000%"
           stop-color="#b2a699"
           stop-opacity="1.0000"
           id="stop2" />
        <stop
           offset="12.0000%"
           stop-color="#ffffff"
           stop-opacity="1.0000"
           id="stop4" />
        <stop
           offset="0.0000%"
           stop-color="#d6d6d6"
           stop-opacity="1.0000"
           id="stop6" />
        <stop
           offset="83890432.0000%"
           stop-color="#ffffff"
           stop-opacity="1.0000"
           id="stop8" />
        <stop
           offset="0.0000%"
           stop-color="#ffffff"
           stop-opacity="1.0000"
           id="stop10" />
      </linearGradient>
      <linearGradient
         gradientTransform="scale(0.89175703,1.1213817)"
         xlink:href="#grad1"
         id="grad2"
         x1="80.98394"
         y1="122.59911"
         x2="80.98394"
         y2="628.16272"
         gradientUnits="userSpaceOnUse" />
    </defs>
    <defs
       id="defs40">
      <linearGradient
         id="grad3">
        <stop
           offset="0.0000%"
           stop-color="#00b2e0"
           stop-opacity="1.0000"
           id="stop28" />
        <stop
           offset="12.0000%"
           stop-color="#ffffff"
           stop-opacity="1.0000"
           id="stop30" />
        <stop
           offset="0.0000%"
           stop-color="#d6d6d6"
           stop-opacity="1.0000"
           id="stop32" />
        <stop
           offset="83890432.0000%"
           stop-color="#ffffff"
           stop-opacity="1.0000"
           id="stop34" />
        <stop
           offset="0.0000%"
           stop-color="#ffffff"
           stop-opacity="1.0000"
           id="stop36" />
      </linearGradient>
      <linearGradient
         xlink:href="#grad3"
         id="grad4"
         x1="76.184196"
         y1="208.37164"
         x2="76.184196"
         y2="522.71136"
         gradientTransform="scale(1.2800594,0.78121374)"
         gradientUnits="userSpaceOnUse" />
    </defs>
    <defs
       id="defs90">
      <linearGradient
         id="grad6">
        <stop
           offset="0.0000%"
           stop-color="#00b2e0"
           stop-opacity="1.0000"
           id="stop78" />
        <stop
           offset="12.0000%"
           stop-color="#ffffff"
           stop-opacity="1.0000"
           id="stop80" />
        <stop
           offset="0.0000%"
           stop-color="#d6d6d6"
           stop-opacity="1.0000"
           id="stop82" />
        <stop
           offset="83890432.0000%"
           stop-color="#ffffff"
           stop-opacity="1.0000"
           id="stop84" />
        <stop
           offset="0.0000%"
           stop-color="#ffffff"
           stop-opacity="1.0000"
           id="stop86" />
      </linearGradient>
      <linearGradient
         xlink:href="#linearGradient4492"
         id="grad7"
         x1="269.83728"
         y1="477.30048"
         x2="397.54654"
         y2="614.27893"
         gradientUnits="userSpaceOnUse" />
    </defs>
    <linearGradient
       inkscape:collect="always"
       xlink:href="#linearGradient4414"
       id="linearGradient4420"
       x1="305.88425"
       y1="411.38602"
       x2="308.97397"
       y2="162.147"
       gradientUnits="userSpaceOnUse" />
    <linearGradient
       inkscape:collect="always"
       xlink:href="#linearGradient4472"
       id="linearGradient4478"
       x1="124.61951"
       y1="675.04382"
       x2="299.70477"
       y2="633.84729"
       gradientUnits="userSpaceOnUse" />
  </defs>
  <g
     id="g4627"
     transform="matrix(1.2354718,0,0,1.2347208,-89.223305,-169.74988)">
    <g
       id="g4623">
      <path
         inkscape:connector-curvature="0"
         d="m 72.218,213.9155 c 61.1028,-55.3229 150.2799,-76.4351 225.4199,-76.4351 75.14,0 161.015,20.8114 225.42,75.7223 l 0,268.5224 c 0,95.9561 -57.661,158.839 -125.1686,193.3451 -33.9936,17.3756 -75.228,30.0464 -101.0197,29.3094 -30.7229,-0.8777 -63.4029,-12.4765 -94.1289,-27.178 C 129.9681,642.3823 72.218,578.6327 72.218,479.8303 Z"
         style="fill:#4f443e;fill-opacity:1"
         id="path16" />
      <path
         inkscape:connector-curvature="0"
         d="m 85.0474,219.704 0,260.1263 c 0,86.6123 47.334,149.4842 123.2306,185.7985 27.0073,12.9221 58.7622,25.064 88.9579,25.9268 28.1174,0.8033 70.0336,-15.2424 94.8143,-27.9089 72.0409,-36.8232 118.1783,-99.1042 118.1783,-181.9216 l 0,-262.5129 C 451.41,171.3457 372.5302,150.3098 297.6379,150.3098 c -73.3225,0 -155.7235,20.5074 -212.5905,69.3942 z"
         style="fill:#ffffff;fill-rule:evenodd;stroke:#c5c7c8;stroke-width:0.0028;stroke-linecap:butt;stroke-linejoin:miter;stroke-dasharray:none"
         id="path18" />
    </g>
    <g
       id="g4575">
      <g
         id="g4547">
        <g
           id="g4517">
          <path
             id="path4310"
             style="fill:url(#linearGradient4420);fill-opacity:1;fill-rule:evenodd;stroke:none;stroke-width:0.00267055;stroke-linecap:butt;stroke-linejoin:miter;stroke-dasharray:none"
             d="m 97.521886,227.50347 0,180.84531 402.370324,0 0,-181.31805 c -55.66292,-46.01138 -130.31085,-66.232 -201.18521,-66.232 -69.38878,0 -147.36901,19.71261 -201.185114,66.70474 z"
             inkscape:connector-curvature="0"
             sodipodi:nodetypes="ccccsc" />
          <path
             style="fill:#14fefd;fill-opacity:1;fill-rule:evenodd"
             d="m 296.56154,162.80321 -4.57812,165.79102 -30.66016,-163.9668 c -0.0247,0.002 -0.0495,0.003 -0.0742,0.006 l 22.13281,164.41211 -57.62695,-159.28515 c -0.009,0.002 -0.0182,0.004 -0.0273,0.006 L 274.82912,330.34817 192.52639,180.28567 268.0342,335.83645 156.13771,193.73293 260.15529,339.71145 121.59475,211.70754 253.58303,345.38332 98.811539,241.75637 249.08303,352.76809 97.754898,283.24465 245.54592,360.52004 97.754898,318.84817 l 0,0.19726 144.824222,49.32227 -144.824222,-17.85547 143.527352,26.02148 -143.417977,4.22071 144.134767,4.01367 -123.79297,23.58203 7.96094,0 117.14258,-15.43164 -42.66406,15.43164 19.78906,0 25.45898,-7.59375 -13.70508,7.59375 16.95704,0 0.54101,-0.25977 -0.33203,0.25977 94.20508,0 -0.0527,-0.041 0.0859,0.041 17.01563,0 -13.31055,-7.375 24.72852,7.375 19.91601,0 -42.05859,-15.21289 115.48047,15.21289 8.47461,0 -122.60547,-23.35547 145.57226,-4.02148 -144.85156,-4.22852 145.68164,-26.34961 -147.02344,18.19141 148.18555,-50.4668 L 347.24904,360.85012 499.6592,280.83254 344.29201,352.80129 496.96975,239.75832 339.13771,345.84035 471.96779,210.07863 333.55764,339.20168 437.05373,193.95168 325.49709,335.62551 402.14357,179.0259 318.21779,331.04348 367.62404,169.46535 309.80959,329.26613 332.01175,164.19578 c -0.0137,-0.001 -31.38574,163.74019 -31.38574,163.74019 l -4.05664,-165.13282 c -0.003,2e-5 -0.005,-10e-6 -0.008,0 z"
             id="path26"
             inkscape:connector-curvature="0"
             sodipodi:nodetypes="ccccccccccccccccccccccccccccccccccccccccccccccccccccccccccccccccccccc" />
        </g>
        <g
           id="g4322">
          <path
             id="path44"
             style="fill:#ffffff;fill-rule:evenodd"
             d="m 470.7955,192.9843 c -14.2008,13.3369 -24.9606,30.4688 -34.1791,50.8327 -16.4338,36.3022 -26.6287,79.4079 -40.194,113.7445 -11.091,28.0739 -34.7363,49.68 -48.2052,59.5108 -21.0577,-0.6793 -34.8274,-0.3397 -55.8853,-1.0189 7.0488,-9.4965 42.5142,-53.4741 55.5593,-83.8832 9.694,-22.5972 13.7191,-46.5759 21.4123,-68.0476 8.9974,-25.1117 21.9794,-46.5102 39.0912,-57.288 18.6034,-11.717 38.641,-14.0613 62.4008,-13.8503 z"
             inkscape:connector-curvature="0" />
          <path
             id="path46"
             style="fill:#ffffff;fill-rule:evenodd"
             d="m 285.6456,193.0517 c -5.8957,16.929 -4.0256,33.2027 4.3822,48.0463 3.6466,6.4376 9.3779,13.7378 16.2781,19.4231 6.727,5.5426 13.6981,9.0031 21.8134,14.7127 6.724,4.7306 14.0771,10.9052 20.6997,16.8053 2.1224,-29.2106 0.7155,-47.458 -13.6839,-69.1438 -10.2928,-15.5015 -31.1488,-25.4283 -49.4895,-29.8436 z"
             inkscape:connector-curvature="0" />
        </g>
        <g
           id="g4441">
          <path
             inkscape:connector-curvature="0"
             d="m 232.2849,330.845 0,82.8505 -73.7446,0 0,-82.8505 -1.1087,0 0,-6.7299 -9.6086,-6.7826 0,-41.5914 1.8123,-1.9026 c 1.3769,-1.4454 2.4694,-3.0821 3.5875,-4.7266 1.8568,-2.7307 3.6514,-5.1314 6.1175,-7.3693 2.2765,-2.0661 5.0846,-3.8767 8.0696,-5.1139 l 0,-27.4101 4.6195,0 0,-12.0165 -8.6046,-12.9492 8.7896,0 c 0.0444,-10.3639 6.8177,-18.5013 16.0758,-21.3996 l 0,-17.119 c 4.9948,-1.6355 9.9894,-2.8333 14.9839,-4.0311 l 0,21.193 c 9.1712,2.9453 15.8468,11.0882 15.891,21.3567 l 9.4856,0 -9.4853,12.6328 0,12.3329 4.6195,0 0,27.3227 c 1.9759,0.802 3.8312,1.8853 5.6529,3.2317 3.0588,2.261 5.7466,4.7989 7.9461,7.9119 1.1365,1.6088 2.0059,3.3898 3.1159,4.9449 0.2088,0.2927 0.4308,0.5624 0.7016,0.7998 l 2.2387,1.9623 0,42.0076 -9.4922,6.4748 0,6.9707 z"
             style="fill:#ffffff;fill-rule:evenodd"
             id="path49" />
          <g
             id="g4437"
             transform="translate(6.95e-4,0)">
            <path
               id="path4432"
               d="m 194.85742,165.17969 0,23.12304 c -7.7227,0.3994 -16.07617,5.96334 -16.07617,16.05274 l 0,6.46484 -3.10547,0 2.73633,4.1211 0.18555,0 0,20.8457 -4.61914,0 0,25.78516 c -3.656,0.4683 -7.55121,2.607 -10.22461,5.0332 -4.2088,3.8198 -5.61468,7.82847 -9.36329,11.76367 l 0,35.56055 9.60938,6.78125 0,3.5664 63.37891,0 0,-3.87304 9.49218,-6.47461 0,-35.56055 c -3.6186,-3.172 -3.26379,-7.34635 -11.33789,-13.31445 -1.9698,-1.456 -4.5564,-3.01906 -8.3164,-3.47266 l 0,-25.79492 -4.61914,0 0,-21.0918 2.9082,-3.875 -2.9082,0 0,-6.46484 c 0,-10.1157 -8.37413,-15.61493 -15.89063,-16.04883 l 0,-23.12695 -1.84961,0 z m -8.86914,49.70703 c 1.931,0 3.51172,1.57876 3.51172,3.50976 l 0,17.39063 -7.02148,0 0,-17.39063 c 0,-1.9222 1.58756,-3.50976 3.50976,-3.50976 z m 9.85156,0 c 1.931,0 3.51172,1.57876 3.51172,3.50976 l 0,17.39063 -7.02148,0 0,-17.39063 c 0,-1.9222 1.58756,-3.50976 3.50976,-3.50976 z m 9.85352,0 c 1.931,0 3.50976,1.57876 3.50976,3.50976 l 0,17.39063 -7.02148,0 0,-17.39063 c 0,-1.9222 1.58952,-3.50976 3.51172,-3.50976 z"
               style="fill:#535353;fill-opacity:1;fill-rule:evenodd"
               inkscape:connector-curvature="0" />
            <path
               id="path51"
               d="m 165.10938,328.04102 0,79.08593 60.60742,0 0,-79.08593 -60.60742,0 z m 30.47851,12.41406 c 9.9484,0 18.01563,8.06722 18.01563,18.01562 0,9.9484 -8.06723,18.01758 -18.01563,18.01758 -9.9484,0 -18.01758,-8.06918 -18.01758,-18.01758 0,-9.9484 8.06918,-18.01562 18.01758,-18.01562 z"
               style="fill:#535353;fill-opacity:1;fill-rule:evenodd"
               inkscape:connector-curvature="0" />
          </g>
        </g>
      </g>
      <g
         id="g4393">
        <rect
           ry="0"
           y="406.96472"
           x="92.724396"
           height="57.612667"
           width="411.9653"
           id="rect4326"
           style="opacity:1;fill:#ffffff;fill-opacity:1;fill-rule:evenodd;stroke:none;stroke-width:3;stroke-linecap:round;stroke-linejoin:round;stroke-miterlimit:4;stroke-dasharray:none;stroke-dashoffset:0;stroke-opacity:1" />
        <g
           id="g4374">
          <path
             style="fill:#1b3f87;fill-rule:evenodd"
             d="m 185.2295,444.6926 11.1004,0 0,4.8742 -16.8103,-0.0116 0,-28.6985 5.7099,0 z"
             id="path4368"
             inkscape:connector-curvature="0" />
          <path
             style="fill:#1b3f87;fill-rule:evenodd"
             d="m 314.9488,425.8142 0,6.5315 10.6626,0 0,4.8738 -10.6626,0 0,7.4731 12.1952,0 0,4.8742 -17.905,-0.0116 0,-28.5935 17.8498,-0.0216 0,4.8741 z"
             id="path4366"
             inkscape:connector-curvature="0" />
          <path
             style="fill:#1b3f87;fill-rule:evenodd"
             d="m 355.43359,420.95898 0,28.59571 5.71094,0 0,-11.13477 2.31836,0.0195 5.93945,11.11524 6.51172,0 -6.51172,-11.30469 c 3.3447,-0.574 5.13833,-2.92989 5.17383,-6.46289 l 0.0332,-3.24414 c 0,-5.3223 -2.66281,-7.5045 -7.81641,-7.5293 l -11.35938,-0.0547 z m 5.71094,4.78711 5.57422,0.0117 c 1.6543,0.003 2.4073,1.0987 2.4043,2.6836 l -0.006,2.59375 c 0.0727,3.1339 -1.92669,2.8658 -4.39649,2.8789 l -3.57617,0.0195 0,-8.1875 z"
             id="path4364"
             inkscape:connector-curvature="0" />
          <path
             style="fill:#1b3f87;fill-rule:evenodd"
             d="m 276.854,437.8922 0,11.6632 -5.7098,0 0,-11.7199 -8.4825,-16.8742 6.2605,0 5.1675,11.0133 5.2223,-11.0133 6.2673,0 z"
             id="path4360"
             inkscape:connector-curvature="0" />
          <path
             style="fill:#1b3f87;fill-rule:evenodd"
             d="m 293.6243,444.6926 12.1734,0 0,4.874 -19.0014,0 0,-4.4585 12.2263,-19.2939 -12.1054,0 0,-4.8737 19.0443,0 0,4.239 z"
             id="path4358"
             inkscape:connector-curvature="0" />
          <path
             style="fill:#1b3f87;fill-rule:evenodd"
             d="m 384.5703,425.8142 0,6.5315 10.6626,0 0,4.8738 -10.6626,0 0,7.4731 12.1952,0 0,4.8742 -17.905,-0.0116 0,-28.5935 17.8498,-0.0216 0,4.8741 z"
             id="path4356"
             inkscape:connector-curvature="0" />
          <path
             style="fill:#1b3f87;fill-rule:evenodd"
             d="m 416.0971,425.8142 0,6.6362 10.772,0 0,4.8737 -10.772,0 0,12.2313 -5.7099,0 0,-28.5937 18.0688,-0.0216 0,4.8741 z"
             id="path4354"
             inkscape:connector-curvature="0" />
          <path
             style="fill:#1b3f87;fill-rule:evenodd"
             d="m 494.1476,425.8142 0,23.7412 -5.7098,0 0,-23.7412 -7.2781,0 0,-4.8737 19.8281,0 0,4.8737 z"
             id="path4352"
             inkscape:connector-curvature="0" />
          <path
             style="fill:#1b3f87;fill-rule:evenodd"
             d="m 199.5522,420.8567 5.7099,0 0,28.6987 -5.7099,0 z"
             id="path4350"
             inkscape:connector-curvature="0" />
          <path
             style="fill:#1b3f87;fill-rule:evenodd"
             d="m 111.1296,438.99 5.8421,-18.1333 7.8315,0 0,28.6987 -5.6704,0 0,-18.111 -5.6998,18.111 -4.3863,0 -6.067,-18.6638 0,18.6638 -5.6704,0 0,-28.6987 7.9784,0 z"
             id="path4348"
             inkscape:connector-curvature="0" />
          <path
             style="fill:#1b3f87;fill-rule:evenodd"
             d="m 226.5908,439.6363 0,-18.7796 5.4909,0 0,28.6987 -5.8544,0 -10.7847,-18.8453 0,18.8453 -5.4909,0 0,-28.6987 5.9005,0 z"
             id="path4346"
             inkscape:connector-curvature="0" />
          <path
             style="fill:#1b3f87;fill-rule:evenodd"
             d="m 138.63281,420.75195 c -2.6133,0 -5.33699,0.62258 -7.34179,2.38867 -1.5374,1.35461 -2.45508,3.24559 -2.45508,5.30469 l 0,13.22266 c 0,5.8242 4.40259,8.4375 9.77929,8.4375 l 2.43165,0 c 4.97569,0 9.48046,-2.58941 9.48046,-8.00781 l 0,-13.88282 c 0,-4.8801 -5.04587,-7.46289 -9.39257,-7.46289 l -2.50196,0 z m 0.23047,4.97266 1.86328,0 c 2.4805,0 4.0918,1.11156 4.0918,3.72656 l 0,11.93164 c 0,2.4976 -1.49744,3.85352 -3.96094,3.85352 l -2.43164,0 c -1.9654,0 -3.8789,-1.16418 -3.8789,-3.29688 l 0,-13.06445 c 0,-2.47 2.2056,-3.15039 4.3164,-3.15039 z"
             id="path4344"
             inkscape:connector-curvature="0" />
          <path
             style="fill:#1b3f87;fill-rule:evenodd"
             d="m 441.20117,420.75195 c -2.6132,0 -5.337,0.62258 -7.34179,2.38867 -1.53731,1.35461 -2.45508,3.24559 -2.45508,5.30469 l 0,13.22266 c 0,5.8242 4.40269,8.4375 9.77929,8.4375 l 2.4336,0 c 4.9758,0 9.48047,-2.58941 9.48047,-8.00781 l 0,-13.88282 c 0,-4.8801 -5.04784,-7.46289 -9.39454,-7.46289 l -2.50195,0 z m 0.23047,4.97266 1.86328,0 c 2.4805,0 4.0918,1.11156 4.0918,3.72656 l 0,11.93164 c 0,2.4976 -1.49549,3.85352 -3.95899,3.85352 l -2.43359,0 c -1.9654,0 -3.87891,-1.16418 -3.87891,-3.29688 l 0,-13.06445 c 0,-2.47 2.20561,-3.15039 4.31641,-3.15039 z"
             id="path4340"
             inkscape:connector-curvature="0" />
          <path
             style="fill:#1b3f87;fill-rule:evenodd"
             d="m 466.92773,420.75195 c -2.6132,0 -5.33895,0.62258 -7.34375,2.38867 -1.5374,1.35461 -2.45312,3.24559 -2.45312,5.30469 l 0,13.22266 c 0,5.8242 4.40074,8.4375 9.77734,8.4375 l 2.4336,0 c 4.9758,0 9.48047,-2.58941 9.48047,-8.00781 l 0,-13.88282 c 0,-4.8801 -5.04774,-7.46289 -9.39454,-7.46289 l -2.5,0 z m 0.22852,4.97266 1.86328,0 c 2.4806,0 4.0918,1.11156 4.0918,3.72656 l 0,11.93164 c 0,2.4976 -1.49559,3.85352 -3.95899,3.85352 l -2.43359,0 c -1.9654,0 -3.87891,-1.16418 -3.87891,-3.29688 l 0,-13.06445 c 0,-2.47 2.20571,-3.15039 4.31641,-3.15039 z"
             id="path4336"
             inkscape:connector-curvature="0" />
          <path
             style="fill:#1b3f87;fill-rule:evenodd"
             d="m 154.4515,441.6682 0,-20.6123 5.7098,0 0,20.8827 c 0,2.13 1.9168,3.2981 3.8796,3.2981 l 1.0097,0 c 2.4604,0 3.9601,-1.3594 3.9601,-3.8537 l 0,-20.3271 5.7099,0 0,21.0419 c 0,5.4162 -4.5071,8.0076 -9.4808,8.0076 l -1.0098,0 c -5.374,0 -9.7785,-2.6161 -9.7785,-8.4372 z"
             id="path4332"
             inkscape:connector-curvature="0" />
          <path
             style="fill:#1b3f87;fill-rule:evenodd"
             d="m 235.8761,449.1517 -0.1279,-5.5687 0.6452,0.3125 c 1.7909,0.8669 5.1126,1.3412 7.1211,1.3412 2.8869,0 5.1888,-0.4635 5.1888,-3.8614 0.0674,-2.8703 -0.0235,-4.1797 -3.2773,-4.2211 -1.0388,-0.0127 -2.0775,-0.0339 -3.1163,-0.0449 -4.2259,-0.0453 -6.9845,-1.8009 -7.0611,-6.4695 l -0.0326,-1.9943 c 0,-3.3005 1.1411,-5.9261 4.343,-7.1859 1.6622,-0.6542 4.3233,-0.8234 6.123,-0.8234 2.4356,0 4.7675,0.1246 7.169,0.5447 l 0.3628,0.0635 -0.007,5.3372 -0.6034,-0.2478 c -1.7705,-0.7276 -4.5499,-0.8289 -6.4888,-0.8289 -0.8935,0 -2.0464,0.0315 -2.9075,0.2404 -1.9023,0.4621 -2.2813,1.7799 -2.2813,3.6209 -0.0315,1.3507 0.548,2.9765 2.1224,3.0124 l 4.4914,0.1027 c 4.2489,0.0451 6.7929,1.8541 6.8409,6.4721 l 0.0326,3.1433 c 0,3.3326 -1.267,5.8272 -4.4525,7.0806 -1.6674,0.6564 -4.2134,0.9281 -6.0135,0.9281 -2.5029,0 -5.3337,-0.2054 -7.7562,-0.8677 z"
             id="path4330"
             inkscape:connector-curvature="0" />
          <path
             style="fill:#1b3f87;fill-rule:evenodd"
             d="m 330.4757,441.6682 0,-20.6123 5.7099,0 0,20.8827 c 0,2.13 1.9168,3.2981 3.8795,3.2981 l 1.0097,0 c 2.4604,0 3.9601,-1.3594 3.9601,-3.8537 l 0,-20.3271 5.7099,0 0,21.0419 c 0,5.4162 -4.507,8.0076 -9.4808,8.0076 l -1.0097,0 c -5.374,0 -9.7786,-2.6161 -9.7786,-8.4372 z"
             id="path96"
             inkscape:connector-curvature="0" />
        </g>
      </g>
      <g
         id="g4560">
        <g
           id="g4464">
          <path
             inkscape:connector-curvature="0"
             d="m 97.5204,463.9939 0,16.9055 c 0,81.7803 44.4079,140.8985 116.7485,175.5115 25.4967,12.199 55.8332,23.9995 84.3619,24.8145 26.0315,0.7438 66.1947,-14.8546 89.2983,-26.6641 68.3215,-34.9219 111.9646,-93.3784 111.9646,-171.767 l 0,-18.8004 z"
             style="fill:#26e300;fill-opacity:1;fill-rule:evenodd"
             id="path20" />
          <g
             id="g4447">
            <path
               id="path22"
               style="fill:#4ffe01;fill-opacity:1;fill-rule:evenodd"
               d="m 156.9697,618.5214 c 16.2683,14.8173 35.5149,27.4663 57.2992,37.8895 4.4358,2.1222 9.0184,4.2323 13.7122,6.2746 l 0,-198.6916 -71.0114,0 z"
               inkscape:connector-curvature="0" />
            <path
               id="path24"
               style="fill:#4ffe01;fill-opacity:1;fill-rule:evenodd"
               d="m 294.5293,681.0341 c 1.371,0.088 2.7384,0.1525 4.1015,0.1913 18.8428,0.5385 45.0882,-7.4859 66.9099,-16.4376 l 0,-200.7939 -71.0114,0 z"
               inkscape:connector-curvature="0" />
            <path
               id="path55"
               style="fill:#4ffe01;fill-opacity:1;fill-rule:evenodd"
               d="m 439.5727,619.3379 c 37.8824,-34.3832 60.321,-80.3391 60.321,-136.5436 l 0,-18.8004 -60.321,0 z"
               inkscape:connector-curvature="0" />
          </g>
          <path
             inkscape:connector-curvature="0"
             d="m 97.52055,463.8714 402.373,0 0,6.623 -402.373,0 z"
             style="fill:#248807;fill-opacity:1;fill-rule:evenodd"
             id="path57" />
        </g>
        <g
           id="g4510">
          <path
             inkscape:connector-curvature="0"
             d="m 334.4067,449.4424 c 54.5064,0 98.7093,44.2029 98.7093,98.7093 0,54.5064 -44.2029,98.7093 -98.7093,98.7093 -5.1916,0 -10.2886,-0.4041 -15.2642,-1.1768 l -3.0237,1.4897 c -36.079,17.7749 -75.8259,29.4694 -115.8386,34.5774 -20.9854,-12.5928 -37.2259,-24.4442 -53.5525,-38.8046 6.4831,0.5278 21.3136,-4.407 29.8856,-8.3599 24.4853,-11.2911 47.3531,-30.825 65.9057,-50.3157 -4.4024,-11.187 -6.8216,-23.371 -6.8216,-36.1194 0,-54.5064 44.2029,-98.7093 98.7093,-98.7093 z"
             style="fill:#ffffff;fill-rule:evenodd"
             id="path59" />
          <g
             id="g4505">
            <path
               id="path76"
               style="fill:url(#linearGradient4478);fill-opacity:1"
               d="m 246.2904,592.6672 c -24.3741,25.1014 -47.0898,40.9064 -66.1015,49.6735 -13.2734,6.1207 -24.1878,9.3667 -33.7099,8.8443 -11.7724,-0.6459 -20.1005,-8.408 -20.7632,-26.0835 -9.2709,24.1409 7.3371,38.5057 24.353,42.0625 26.5445,5.5485 63.6188,-0.4081 111.6463,-20.6279 -23.8671,13.4273 -48.8128,22.5432 -74.6518,28.0868 37.4857,-3.5018 78.9554,-13.4275 118.745,-31.9775 -2.7089,-0.819 -5.3699,-1.7488 -7.975,-2.789 -5.5553,2.9156 -11.0994,5.406 -16.5314,7.2341 5.1441,-2.9629 9.7667,-5.5982 14.1549,-8.2206 -7.3337,-3.1538 -14.2098,-7.1706 -20.4985,-11.923 -34.2387,18.6811 -61.9759,27.0928 -80.3196,30.5463 39.3952,-13.5948 61.1664,-24.6432 76.2478,-33.7975 -3.9509,-3.3257 -7.6409,-6.9523 -11.0269,-10.8498 -10.7033,6.8522 -21.7298,12.9384 -32.3291,16.5055 11.6983,-6.7384 20.7071,-11.7785 30.3709,-18.8365 -4.4805,-5.4887 -8.3815,-11.4692 -11.611,-17.8477 z"
               inkscape:connector-curvature="0" />
            <path
               id="path92"
               style="fill:url(#grad7);fill-opacity:1"
               d="m 334.8446,456.4484 c 50.6376,0 91.7034,41.0657 91.7034,91.7033 0,50.6376 -41.0658,91.7034 -91.7034,91.7034 -50.6376,0 -91.7034,-41.0658 -91.7034,-91.7034 0,-50.6376 41.0658,-91.7033 91.7034,-91.7033 z"
               inkscape:connector-curvature="0" />
            <path
               id="path94"
               style="fill:#ffffff;fill-opacity:1;fill-rule:evenodd"
               d="m 351.9249,466.5667 c 19.7959,4.1795 37.0036,15.385 48.8924,30.8839 l -13.5212,-4.1052 1.806,26.6928 19.1844,25.2711 8.5885,-10.9013 c 0.7421,4.472 1.1345,9.0618 1.1345,13.7437 0,20.0812 -7.1032,38.5075 -18.9334,52.9003 l -0.0254,-22.4925 -28.5034,10.6998 -15.956,25.5866 19.0349,7.0155 c -11.6391,6.1725 -24.9107,9.6741 -39.0005,9.6741 -11.3418,0 -22.1537,-2.2692 -32.0108,-6.3727 l 17.351,-8.0729 -20.6344,-25.3376 -27.5472,-5.5242 1.2661,18.141 c -13.5444,-14.8263 -21.8086,-34.5581 -21.8086,-56.2174 0,-0.8641 0.0173,-1.7239 0.0436,-2.5817 l 9.4751,7.2324 12.8936,-23.2455 0.9571,-25.7582 -13.702,5.3654 c 10.0031,-18.8703 27.0378,-33.4422 47.6099,-40.2226 l -3.9634,10.2111 25.0511,5.4174 28.822,-8.8187 z m -22.0635,40.8753 31.4753,20.567 -9.4178,35.9361 -37.0767,1.559 -13.8512,-34.1288 z"
               inkscape:connector-curvature="0" />
          </g>
        </g>
      </g>
    </g>
  </g>
</svg>
