<?xml version="1.0" encoding="UTF-8" standalone="no"?>
<svg
   viewBox="0 0 800.00002 800.00002"
   id="svg100"
   height="800"
   width="800"
   version="1.1"
   inkscape:version="1.2 (dc2aeda, 2022-05-15)"
   sodipodi:docname="Logo ASM Belfort - 2022.svg"
   xml:space="preserve"
   xmlns:inkscape="http://www.inkscape.org/namespaces/inkscape"
   xmlns:sodipodi="http://sodipodi.sourceforge.net/DTD/sodipodi-0.dtd"
   xmlns="http://www.w3.org/2000/svg"
   xmlns:svg="http://www.w3.org/2000/svg"
   xmlns:rdf="http://www.w3.org/1999/02/22-rdf-syntax-ns#"
   xmlns:cc="http://creativecommons.org/ns#"
   xmlns:dc="http://purl.org/dc/elements/1.1/"><sodipodi:namedview
     pagecolor="#ffffff"
     bordercolor="#666666"
     borderopacity="1"
     objecttolerance="10"
     gridtolerance="10"
     guidetolerance="10"
     inkscape:pageopacity="0"
     inkscape:pageshadow="2"
     inkscape:window-width="1920"
     inkscape:window-height="1080"
     id="namedview58"
     showgrid="false"
     inkscape:zoom="0.20105089"
     inkscape:cx="1701.0619"
     inkscape:cy="1009.6946"
     inkscape:window-x="0"
     inkscape:window-y="0"
     inkscape:window-maximized="0"
     inkscape:current-layer="svg100"
     inkscape:showpageshadow="2"
     inkscape:pagecheckerboard="0"
     inkscape:deskcolor="#d1d1d1"
     showguides="true" /><metadata
     id="metadata106"><rdf:RDF><cc:Work
         rdf:about=""><dc:format>image/svg+xml</dc:format><dc:type
           rdf:resource="http://purl.org/dc/dcmitype/StillImage" /><dc:title /></cc:Work></rdf:RDF></metadata><defs
     id="defs104" /><circle
     style="fill:#2b6aad;fill-opacity:1;stroke:none;stroke-width:0.500002;stroke-linecap:round;stroke-linejoin:round;stroke-dasharray:none"
     id="circle7568"
     cx="400"
     cy="400"
     r="400" /><g
     id="g10607"
     transform="matrix(0.38302559,0,0,0.38302559,-3.1982543,-3.1982543)"
     style="stroke-width:2.61079"><path
       id="path7485"
       style="fill:#b31a1d;fill-opacity:1;stroke:none;stroke-width:1.3054;stroke-linecap:round;stroke-linejoin:round;stroke-dasharray:none"
       d="m 1020.2031,308.38086 a 746.60822,746.60822 0 0 0 -714.14451,744.28514 746.60822,746.60822 0 0 0 746.60741,746.6094 746.60822,746.60822 0 0 0 34.3184,-2.4551 l 78.4355,-226.5898 -72.6113,-132.5176 -163.37696,-308.5996 167.00586,-265.03322 72.6133,-397.54883 z" /><path
       id="circle7968"
       style="fill:#2b6aad;fill-opacity:1;stroke:none;stroke-width:1.3054;stroke-linecap:round;stroke-linejoin:round;stroke-dasharray:none"
       d="m 1052.666,306.05859 a 746.60822,746.60822 0 0 0 -32.4629,2.32227 l 148.8477,158.15039 -72.6133,397.54883 -167.00586,265.03322 163.37696,308.5996 72.6113,132.5176 -78.4355,226.5898 A 746.60822,746.60822 0 0 0 1799.2754,1052.666 746.60822,746.60822 0 0 0 1052.666,306.05859 Z" /><path
       id="path673"
       style="fill:#ffffff;fill-opacity:1;stroke:none;stroke-width:0.522158;stroke-linecap:butt;stroke-linejoin:miter;stroke-dasharray:none;stroke-opacity:1"
       d="m 979.39258,310.3125 c 26.76282,30.61914 62.10772,44.3783 94.18552,66.26562 -185.38555,-21.44433 -358.43609,33.05147 -501.08982,192.38086 -5.59137,6.56163 -8.45725,10.97461 -6.48047,12.5 2.314,1.78561 5.37142,-0.47806 12.57813,-3.83593 23.26288,-10.83905 46.77015,-20.42961 70.91992,-25.67188 -91.1811,78.48031 -144.68282,160.97071 -174.70313,231.91602 -62.26059,147.13697 -60.41681,261.50981 -28.42773,405.71681 1.23056,7.2483 2.44541,9.4792 4.72656,9.1308 2.0501,-0.3132 2.39912,-3.7662 2.6543,-9.1308 7.89474,-165.9692 94.19737,-301.18925 148.57617,-366.15041 -85.5735,166.93319 -91.73902,331.67601 -66.44141,449.40431 22.1238,102.9582 70.56466,205.9389 134.91993,285.5586 48.71452,60.2692 123.23519,113.8918 168.99023,130.5097 -77.20408,-72.8317 -98.43589,-155.7326 -108.14453,-232.332 31.92213,74.4273 91.8123,130.166 153.07031,159.4883 16.26796,7.4067 7.99577,-4.8472 5.45508,-9.3066 -60.36843,-105.959 -92.2796,-223.5265 -94.02344,-330.209 43.47497,99.3595 98.72404,152.9376 139.72852,184.7441 71.09058,55.1437 137.57928,64.0298 162.42578,132.2363 21.4944,59.0048 20.0519,126.5511 -26.5,210.9043 104.4342,-61.0611 176.0199,-138.5761 212.4375,-233.6171 2.281,-5.9529 3.7331,-15.3545 6.0957,0.3203 4.3771,29.0396 6.0639,56.7238 3.209,83.1152 -0.9176,8.4823 -2.2743,13.9735 -0.877,15.0352 2.6814,2.0375 6.4146,-4.2337 10.1836,-9.5801 51.7016,-69.3805 71.6942,-142.3919 37.9317,-206.1192 -20.4969,-38.688 -51.1798,-73.4738 -125.8594,-102.9101 105.6373,14.0151 211.5334,74.5765 214.043,190.9375 0.083,3.8722 -0.1931,8.7075 2.8691,8.6992 2.2051,-0.01 3.4384,-1.4588 7.3984,-14.4766 32.2315,-105.9557 18.1362,-191.4401 -86.1445,-237.3457 -46.8622,-20.6293 -96.8545,-21.0837 -148.7656,-35.1914 -47.588,-12.9329 -83.1428,-36.2246 -101.9688,-60.6133 -45.8181,-59.3563 -59.9687,-141.9587 -43.709,-221.04683 9.4571,65.23713 38.8205,117.50253 80.2247,160.45113 3.3609,3.4863 6.3331,3.9268 7.4941,2.5957 0.8879,-1.0179 1.1785,-3.4022 0.207,-7.0878 -6.6649,-25.286 -6.2848,-51.2085 -4.1718,-77.3379 26.2622,70.6921 94.7658,115.917 179.4277,135.7871 77.2378,18.1277 202.2872,29.868 206.9394,118.6875 0.7885,15.0537 4.1352,11.2138 8.3418,6.7402 36.7697,-40.1918 49.5382,-79.9457 51.3516,-119.498 1.6046,-34.9985 -8.4197,-55.5791 -26,-89.1973 -5.4152,-10.3553 5.9581,-22.5464 7.3809,-55.4082 0.3173,-7.3286 -0.5327,-11.6145 -3.086,-12.4883 -2.322,-0.7945 -5.2387,2.0598 -11.0332,6.3926 -51.5591,38.5532 -99.0221,75.8844 -128.3906,79.6289 -22.3514,2.8498 -40.7316,-6.9342 -54.2031,-30.8535 -7.3605,-13.0689 0.058,-12.8811 7.3808,-8.9844 32.5736,17.3345 173.4904,-60.1931 195.75,-94.66601 4.6827,-7.25193 5.6968,-9.09351 6.418,0.64258 l 0.6426,8.66403 c 0.9459,12.7697 8.0475,5.3178 10.2695,-0.3222 6.5941,-16.73702 14.2731,-34.15939 19.2539,-49.418 1.851,-5.67039 2.1007,-10.85518 -0.027,-11.88086 -1.557,-0.75036 -5.0814,0.20594 -10.2422,5.46289 -8.1127,8.26383 -14.4184,12.50623 -18.291,4.8125 -4.252,-8.44762 -26.4346,-13.14843 -40.7539,-14.43945 -17.5124,-1.57891 -33.7283,-25.62375 -30.42,-32.60547 3.6436,-7.68926 12.6483,-0.5495 28.1739,-3.33594 25.1538,-4.51447 45.0867,-13.66442 67.0683,-20.53711 6.99,-2.18547 7.1358,-4.35039 0.3203,-10.26953 L 1479.3574,760.85742 c -13.6832,-14.8499 -28.0258,-28.75815 -38.9941,-61.05469 -9.2706,-27.29771 -39.2346,-52.31093 -54.0664,-65.3789 -48.6728,-42.88455 -103.7897,-64.9386 -159.4883,-85.36133 35.5892,1.26882 73.3654,-0.61733 101.4043,11.23242 9.0168,3.81068 17.2977,8.30968 11.873,-12.51562 -34.5367,-132.58611 -134.9706,-187.82258 -276.0957,-234.64063 z m 316.57622,418.06055 c 14.428,0.30615 24.6386,9.38789 32.5644,20.13086 26.2896,35.63429 50.6191,52.46001 78.7813,70.75781 -27.1972,-5.96147 -56.3645,-16.30017 -77.7071,-30.70313 -22.6528,-15.2871 -12.7146,-8.10758 -39.5898,-1.28711 -18.5169,4.69927 -38.0109,-1.37126 -46.2305,-7.35156 -2.1391,-1.55633 -5.7707,-4.20592 -6.6992,-8.15625 -1.4895,-6.33762 -2.2523,-10.24594 -8.6758,-8.33789 -7.5163,2.23266 -8.1776,-1.15442 1.1231,-6.41797 L 1273.5,734.0625 c 8.4819,-4.1546 15.9106,-5.82861 22.4688,-5.68945 z" /><path
       style="fill:#c74126;fill-opacity:1;stroke:none;stroke-width:0.261079;stroke-linecap:butt;stroke-linejoin:miter;stroke-dasharray:none;stroke-opacity:1"
       d="m 986.93375,660.57653 c 6.96437,1.28676 15.46685,-0.54549 21.47835,-3.03446 9.5164,-3.94013 18.128,-3.5395 26.1756,-4.02538 -28.8039,21.2308 -59.3158,42.62687 -80.38594,82.47179 -3.51113,6.63977 -4.48927,9.65846 -2.50374,11.14688 2.19508,1.6455 5.82393,-0.18462 9.40313,-3.44524 6.14385,-5.59701 38.60171,-22.74076 56.96005,-20.53772 -2.8686,26.52906 -17.4879,49.52 -34.65188,69.20018 -19.16269,21.97193 -45.49711,39.61712 -79.58916,52.58209 16.32765,-37.10281 11.91939,-74.50271 6.89843,-109.56488 -3.95552,-27.62203 -9.89618,-53.38042 -8.50543,-79.09954 5.96772,-50.40898 31.20642,-91.88567 85.23637,-97.40584 43.49427,-4.47356 95.25297,27.86059 121.90827,54.53954 -53.4879,-0.25249 -90.1553,20.68889 -122.42405,47.17258 z"
       id="path5025"
       sodipodi:nodetypes="cscssscscscccc" /></g><g
     id="g10671"
     transform="matrix(0.38302559,0,0,0.38302559,-3.1982543,-3.1982543)"
     style="stroke-width:2.61079"><g
       id="g10361"
       style="fill:#ffffff;stroke:none;stroke-width:2.61079"><path
         id="path8296"
         style="fill:#ffffff;stroke:none;stroke-width:0.522158;stroke-linecap:butt;stroke-linejoin:miter;stroke-dasharray:none;stroke-opacity:1"
         d="m 414.79492,287.26953 -44.02148,39.71094 24.05273,27.22851 3.85742,-4.76562 56.72852,105.28906 -6.12695,5.44531 23.82617,26.77539 22.00976,-20.42187 -12.25195,-22.69141 -14.97656,0.90821 41.07031,-37.21485 29.5,20.19532 22.46289,-18.83399 -24.73242,-27.00195 -6.12695,5.90039 -86,-62.40039 -21.55664,3.40234 16.11132,-13.8418 z m 21.35156,68.82813 42.89844,30.30859 -18.49609,15.85547 z" /><path
         style="fill:#ffffff;stroke:none;stroke-width:0.522158;stroke-linecap:butt;stroke-linejoin:miter;stroke-dasharray:none;stroke-opacity:1"
         d="m 541.6387,240.52661 5.89971,9.30339 26.09487,-16.56457 -17.01839,-24.27957 -21.78354,-7.03427 -57.1818,37.89429 -2.49603,23.14501 36.3059,53.77812 77.15005,-3.63059 15.65692,23.82575 -30.17928,20.8759 -6.35354,-9.30339 -25.18722,16.33765 15.88383,24.50649 22.01046,6.80736 57.1818,-37.21355 2.72294,-23.37193 -38.34811,-57.40871 -77.15005,4.99206 -7.48809,-12.25324 -18.83369,-2.49603 z"
         id="path8310"
         sodipodi:nodetypes="cccccccccccccccccccccc" /><path
         style="fill:#ffffff;stroke:none;stroke-width:0.522158;stroke-linecap:butt;stroke-linejoin:miter;stroke-dasharray:none;stroke-opacity:1"
         d="m 644.20288,309.50783 14.74928,32.67531 41.52487,-17.92604 -14.52236,-32.4484 -6.58044,3.17677 -29.49855,-69.43504 67.16592,91.44549 27.68325,-11.34559 -20.87589,-113.22904 30.63311,69.88887 -7.26118,3.40367 14.29544,32.67532 41.29797,-17.92604 -14.06854,-32.90223 -6.80735,3.17677 -41.29797,-95.98373 -17.92604,-4.31133 20.64898,-9.30339 -14.97618,-32.90222 -47.87841,21.55663 24.50648,120.94404 -77.37696,-99.1605 -43.56708,19.51442 14.74927,32.90223 6.80736,-2.94986 45.8362,105.28712 z"
         id="path8312" /><path
         id="path8328"
         style="fill:#ffffff;stroke:none;stroke-width:2.61079px;stroke-linecap:butt;stroke-linejoin:miter;stroke-opacity:1"
         d="m 949.85352,62.400391 -89.63086,12.933593 4.99218,35.171876 7.48828,-1.36133 15.42969,115.04492 -7.71484,1.13477 5.44531,34.26367 90.76563,-12.02734 12.02539,-18.83399 -9.30274,-65.57617 -11.3457,-9.53125 8.62305,-12.25391 -10.21094,-65.123042 z m -10.21094,37.894529 5.44531,39.25586 -37.21289,5.44531 -4.01367,-28.76367 -14.14063,-9.13086 z m 10.89062,74.42774 5.44727,39.25586 -37.21485,5.44531 -5.44531,-39.0293 z" /><path
         style="fill:#ffffff;stroke:none;stroke-width:0.522158;stroke-linecap:butt;stroke-linejoin:miter;stroke-dasharray:none;stroke-opacity:1"
         d="m 1013.3885,93.714615 -1.3614,115.044335 -7.9419,-0.22691 -0.6808,35.62516 105.0602,2.26912 0.6808,-47.87841 -30.1793,-0.22691 v 11.11868 l -37.8943,-0.68073 0.2269,-39.25576 28.8178,0.22691 0.2269,-36.3059 -28.364,0.22691 0.9077,-28.36399 -13.6147,-12.026329 51.7359,0.453824 v 12.480155 h 29.2716 l 0.9077,-47.424588 -105.2871,-1.588383 -0.4539,35.85208 z"
         id="path9094" /><path
         style="fill:#ffffff;stroke:none;stroke-width:2.61079px;stroke-linecap:butt;stroke-linejoin:miter;stroke-opacity:1"
         d="m 1149.0819,61.266213 -4.7652,35.171344 7.0343,1.361472 -16.7915,114.590511 -7.9419,-1.13456 -5.219,35.17134 104.3795,16.11075 7.2612,-47.87841 -29.7255,-3.63059 -1.3615,10.89177 -37.6673,-5.6728 15.2031,-103.24491 -12.0264,-12.93398 21.5567,3.17676 4.992,-35.398252 z"
         id="path9112"
         sodipodi:nodetypes="cccccccccccccccc" /><path
         style="fill:#ffffff;stroke:none;stroke-width:0.522158;stroke-linecap:butt;stroke-linejoin:miter;stroke-dasharray:none;stroke-opacity:1"
         d="m 1285.8335,121.9687 -32.1351,110.47346 -7.5907,-2.34646 -10.2009,34.14027 42.787,12.90044 10.1609,-34.77795 -7.1735,-2.13443 10.7363,-37.75975 27.7034,7.93969 9.9459,-34.91773 -27.3878,-7.38088 8.474,-27.08378 -9.8947,-15.23438 49.7228,14.29868 -3.3438,12.02387 28.2014,7.84266 13.5809,-45.44751 -101.0122,-29.739586 -10.043,34.419686 z"
         id="path9114"
         sodipodi:nodetypes="cccccccccccccccccccc" /><path
         id="path9136"
         style="fill:#ffffff;stroke:none;stroke-width:2.61079px;stroke-linecap:butt;stroke-linejoin:miter;stroke-opacity:1"
         d="m 1440.4375,135.24023 -22.2383,10.66407 -62.6269,136.14648 5.8984,24.96094 60.1328,27.45703 22.918,-9.98437 63.7617,-137.9629 -6.5801,-22.46484 z m -13.1621,34.03516 46.0644,21.55664 -49.6953,104.60742 -32.9023,-15.88476 43.5683,-93.94141 z" /><path
         id="path9158"
         style="fill:#ffffff;stroke:none;stroke-width:0.522158;stroke-linecap:butt;stroke-linejoin:miter;stroke-dasharray:none;stroke-opacity:1"
         d="m 1550.3223,189.22461 -19.6641,29.98242 6.3281,4.84375 -63.0215,96.25781 -6.5742,-4.46289 -19.7324,29.66797 38.5078,25.29688 19.4297,-30.0625 -6.2363,-4.13867 18.1269,-28.4336 21.5098,14.1582 -11.4258,33.46485 -4.5371,-3.85938 -19.9687,30.17969 37.6679,24.73438 20.4219,-29.72657 -6.3535,-4.31054 17.4726,-51.05469 21.3282,-5.67383 34.4326,-53.40137 -1.3762,-24.34467 z m 0.2988,42.98633 43.373,28.20898 -6.7129,10.52149 -17.5039,28.1289 -9.082,-5.91797 -24.0332,-15.0625 18.9688,-28.41601 z"
         sodipodi:nodetypes="cccccccccccccccccccccccccccccc" /><path
         style="fill:#ffffff;stroke:none;stroke-width:0.522158;stroke-linecap:butt;stroke-linejoin:miter;stroke-dasharray:none;stroke-opacity:1"
         d="m 1672.5681,273.41254 -36.553,38.88419 22.9628,21.05372 12.1213,-13.87448 9.1783,8.10936 -77.2817,86.25823 -5.9944,-5.3318 -23.7744,26.4393 33.7027,30.66276 24.4101,-26.99698 -5.6928,-5.14137 69.6918,-77.67686 -2.8833,-17.42437 18.2541,16.43858 -11.8603,13.59204 22.6592,20.46354 35.5838,-40.39216 z"
         id="path9183"
         sodipodi:nodetypes="cccccccccccccccccc" /></g><g
       id="g10375"
       style="fill:#ffffff;stroke:none;stroke-width:2.61079"><path
         style="fill:#ffffff;stroke:none;stroke-width:0.522158;stroke-linecap:butt;stroke-linejoin:miter;stroke-dasharray:none;stroke-opacity:1"
         d="m 448.83421,1646.3396 -76.34784,83.0638 -5.64709,-5.3675 -23.83145,25.552 31.97339,29.9689 24.07401,-26.1296 -5.37288,-4.9997 25.87821,-28.4988 20.88182,19.0413 23.94591,-26.3464 -20.84784,-18.4126 19.24092,-20.1046 -2.05827,-17.694 37.45801,34.2182 -8.17453,9.1074 21.36151,19.173 31.72569,-34.0144 -75.795,-70.122 -23.81441,25.8663 z"
         id="path9953"
         sodipodi:nodetypes="cccccccccccccccccccc" /><path
         id="path9955"
         style="fill:#ffffff;stroke:none;stroke-width:2.61079px;stroke-linecap:butt;stroke-linejoin:miter;stroke-opacity:1"
         d="m 555.72856,1693.776 -23.25078,6.5601 -83.28374,120.8838 1.50401,25.0792 53.42489,36.5884 23.79269,-5.7902 84.6837,-122.4464 -2.58074,-22.7845 z m -18.4132,30.6381 40.83801,28.5334 -65.51181,92.6161 -29.08745,-20.8512 57.80916,-83.3505 z" /><path
         style="fill:#ffffff;stroke:none;stroke-width:0.522158;stroke-linecap:butt;stroke-linejoin:miter;stroke-dasharray:none;stroke-opacity:1"
         d="m 707.89276,1789.2579 -20.12019,48.1103 28.22844,11.3949 6.33606,-16.8508 11.17817,4.2747 -41.15142,105.4207 -7.31271,-2.8244 -12.69263,32.3425 41.34957,16.5065 13.08318,-33.0706 -6.97145,-2.7536 37.14759,-94.9666 -8.61067,-14.9561 22.33788,8.7857 -6.19408,16.5027 27.74836,10.9588 18.71644,-49.158 z"
         id="path9957"
         sodipodi:nodetypes="cccccccccccccccccc" /><path
         id="path9959"
         style="fill:#ffffff;stroke:none;stroke-width:2.61079px;stroke-linecap:butt;stroke-linejoin:miter;stroke-opacity:1"
         d="m 895.3337,1849.7374 -86.11976,-20.29 -8.03706,33.7663 7.29538,1.4397 -27.10643,110.1255 -7.4203,-1.7268 -7.3003,33.1024 86.82749,21.5199 17.66817,-12.8253 14.98913,-62.9538 -6.90786,-12.7236 12.22187,-8.0588 14.00132,-62.8662 z m -22.83369,30.8054 -9.08533,37.6418 -35.78216,-8.3552 6.63542,-27.5895 -9.5923,-13.359 z m -16.71036,71.5702 -9.08351,37.6423 -35.78395,-8.356 9.0043,-37.4357 z" /><path
         style="fill:#ffffff;stroke:none;stroke-width:2.61079px;stroke-linecap:butt;stroke-linejoin:miter;stroke-opacity:1"
         d="m 1021.4482,1863.9543 1.1055,34.87 7.0401,0.1748 2.3744,113.815 -7.8828,0.1925 0.6656,34.9438 103.7987,-1.3724 -0.7567,-47.5942 -29.4043,1.3191 0.4531,10.7797 -37.4348,0.6317 -2.0674,-102.5581 -13.7626,-10.5804 21.4123,-0.4295 -0.9226,-35.1269 z"
         id="path9963"
         sodipodi:nodetypes="cccccccccccccccc" /><path
         style="fill:#ffffff;stroke:none;stroke-width:2.61079px;stroke-linecap:butt;stroke-linejoin:miter;stroke-opacity:1"
         d="m 1377.7443,1798.2431 16.5799,30.5814 6.3525,-2.9929 53.0164,100.3688 -6.9392,3.6976 16.2209,30.844 91.8962,-47.6474 -21.9575,-42.0783 -25.6162,14.3267 5.2246,9.4043 -33.081,17.306 -47.7086,-90.4743 -16.9975,-3.2738 18.8916,-9.9592 -16.5317,-30.8922 z"
         id="path9965"
         sodipodi:nodetypes="cccccccccccccccc" /><path
         id="path9967"
         style="fill:#ffffff;stroke:none;stroke-width:2.61079px;stroke-linecap:butt;stroke-linejoin:miter;stroke-opacity:1"
         d="m 1627.1502,1626.0332 -65.2918,59.7401 23.3754,25.6668 5.3005,-5.2179 75.7326,84.4491 -5.6082,5.1596 23.242,24.6839 66.7068,-59.6322 -0.6433,-21.8277 -43.5783,-47.8572 -14.4068,-1.4598 0.2268,-14.6411 -44.0625,-46.9917 z m 12.5915,36.2271 25.9873,28.7166 -27.0662,24.8639 -19.0608,-21.0282 -16.4443,0.4006 z m 49.7287,54.1342 25.9889,28.7157 -27.0678,24.8651 -25.8628,-28.5338 z" /><path
         id="path10027"
         style="fill:#ffffff;stroke:none;stroke-width:2.61079px;stroke-linecap:butt;stroke-linejoin:miter;stroke-opacity:1"
         d="m 637.95996,1749.4003 -22.36965,9.1231 -69.21933,129.4518 4.3037,24.7529 57.18698,30.374 22.9944,-8.4188 70.43545,-131.1614 -5.11662,-22.352 z m -14.86551,32.5077 43.77707,23.7796 -54.72552,99.3712 -31.23998,-17.4618 48.1092,-89.3013 z" /><path
         id="path10150"
         style="fill:#ffffff;stroke:none;stroke-width:0.522158;stroke-linecap:butt;stroke-linejoin:miter;stroke-dasharray:none;stroke-opacity:1"
         d="m 994.94807,1862.43 -57.32474,-5.6187 -3.80876,35.0918 5.94644,-0.3492 -38.4726,109.6443 -7.91983,-0.8354 -3.6317,34.6325 29.06836,2.438 8.27444,-23.6488 -10.45407,-10.1594 53.60102,5.1332 4.80643,34.4 28.22484,3.8026 3.2012,-35.4315 -8.24665,-0.5376 -11.48017,-102.5922 -16.55133,-13.2519 20.48332,2.5092 z m -35.44631,60.379 6.31381,50.6396 -23.48993,-2.9039 z" /><path
         style="fill:#ffffff;stroke:none;stroke-width:2.61079px;stroke-linecap:butt;stroke-linejoin:miter;stroke-opacity:1"
         d="m 1123.7133,1862.1396 5.5089,34.4499 7.0057,-0.7175 16.7569,112.5997 -7.7951,1.1884 5.082,34.5787 102.7906,-14.4955 -6.7729,-47.116 -29.0011,5.0292 1.8135,10.6357 -37.054,5.3635 -15.028,-101.4722 -14.9908,-8.7539 21.1858,-3.1354 -5.36,-34.7278 z"
         id="path10182"
         sodipodi:nodetypes="cccccccccccccccc" /><path
         style="fill:#ffffff;stroke:none;stroke-width:0.522158;stroke-linecap:butt;stroke-linejoin:miter;stroke-dasharray:none;stroke-opacity:1"
         d="m 1391.9051,1841.729 -10.2586,-27.6671 -18.4966,-10.7249 -62.6396,22.0715 -7.9271,22.0716 50.205,136.9367 19.2737,13.2118 63.7276,-23.1595 6.8391,-20.2064 -9.9477,-27.8225 -27.3563,9.7923 3.8859,10.414 -34.3508,13.2118 -35.2834,-96.0577 -16.0096,-5.4402 47.0963,-17.2531 3.8858,11.1912 z"
         id="path10246"
         sodipodi:nodetypes="cccccccccccccccccc" /><path
         id="path10280"
         style="fill:#ffffff;stroke:none;stroke-width:2.61079px;stroke-linecap:butt;stroke-linejoin:miter;stroke-opacity:1"
         d="m 1560.6113,1687.334 -36.6308,25.2754 20.0644,28.4179 5.9551,-3.7207 57.9961,84.0664 -0.1367,0.1 4.6992,6.5136 1.5488,2.2442 -30.7676,21.0449 -63.1226,-93.8608 5.4234,-3.7349 -20.0527,-28.7324 -36.6309,25.2754 20.0645,28.4179 5.9551,-3.7187 73.7849,106.1791 23.8321,6.9745 54.9969,-37.3265 0.3931,-25.8421 -67.6438,-95.4772 -17.2656,-1.252 17.5899,-12.1113 z"
         sodipodi:nodetypes="ccccccccccccccccccccccc" /></g></g><g
     id="g10675"
     transform="matrix(0.38302559,0,0,0.38302559,-3.1982543,-3.1982543)"
     style="stroke-width:2.61079"><path
       style="fill:#ffffff;fill-opacity:1;stroke:none;stroke-width:1.30539;stroke-linecap:round;stroke-linejoin:round;stroke-dasharray:none"
       d="M 347.14844,476.32812 A 912.50916,912.50916 0 0 0 140.1582,1052.668 912.50916,912.50916 0 0 0 361.48828,1648.1602 l 5.64844,-4.8711 A 905.0484,905.0484 0 0 1 147.61914,1052.668 905.0484,905.0484 0 0 1 352.79688,481.19922 Z"
       id="path10564" /><path
       style="fill:#ffffff;fill-opacity:1;stroke:none;stroke-width:1.30539;stroke-linecap:round;stroke-linejoin:round;stroke-dasharray:none"
       d="m 1759.1406,475.50391 -5.6504,4.87304 a 905.0484,905.0484 0 0 1 204.2246,572.29105 905.0484,905.0484 0 0 1 -218.0976,588.7246 l 5.6484,4.873 A 912.50916,912.50916 0 0 0 1965.1758,1052.668 912.50916,912.50916 0 0 0 1759.1406,475.50391 Z"
       id="path10508" /></g><path
     id="circle7953"
     style="fill:#ffffff;fill-opacity:1;stroke:none;stroke-width:0.500002;stroke-linecap:round;stroke-linejoin:round;stroke-dasharray:none"
     d="M 399.99976,109.85788 A 290.14188,290.14188 0 0 0 109.85788,399.99976 290.14188,290.14188 0 0 0 399.99976,690.14164 290.14188,290.14188 0 0 0 690.14164,399.99976 290.14188,290.14188 0 0 0 399.99976,109.85788 Z m 0,8.44302 A 281.6994,281.6994 0 0 1 681.69937,399.99976 281.6994,281.6994 0 0 1 399.99976,681.69937 281.6994,281.6994 0 0 1 118.3009,399.99976 281.6994,281.6994 0 0 1 399.99976,118.3009 Z" /></svg>
